<?xml version="1.0" standalone="no"?><!DOCTYPE svg PUBLIC "-//W3C//DTD SVG 1.1//EN" "http://www.w3.org/Graphics/SVG/1.1/DTD/svg11.dtd">
<svg t="1579792181767" class="icon" viewBox="0 0 1024 1024" version="1.1"
  xmlns="http://www.w3.org/2000/svg" p-id="1564"
  xmlns:xlink="http://www.w3.org/1999/xlink" width="200" height="200">
  <path d="M478.754133 478.754133m-478.754133 0a478.754133 478.754133 0 1 0 957.508267 0 478.754133 478.754133 0 1 0-957.508267 0Z" fill="#1A1A1A" p-id="1565"></path>
  <path d="M376.2176 578.628267a13.653333 13.653333 0 0 1-12.629333 18.705066h-22.528a13.653333 13.653333 0 0 1-12.765867-8.738133l-13.994667-36.386133a13.653333 13.653333 0 0 0-12.765866-8.738134h-75.776a13.653333 13.653333 0 0 0-12.9024 8.942934l-13.038934 35.908266a13.653333 13.653333 0 0 1-12.834133 9.0112h-21.230933a13.7216 13.7216 0 0 1-11.332267-5.9392 13.653333 13.653333 0 0 1-1.365333-12.6976l81.7152-209.851733a13.653333 13.653333 0 0 1 12.6976-8.669867h32.085333a13.653333 13.653333 0 0 1 12.629333 8.533334l84.036267 209.92z m-100.283733-75.093334a13.653333 13.653333 0 0 0 12.834133-18.432l-12.970667-34.816a13.653333 13.653333 0 0 0-25.6 0.068267l-12.6976 34.816a13.653333 13.653333 0 0 0 12.834134 18.363733h25.6zM422.775467 597.333333a13.653333 13.653333 0 0 1-13.653334-13.653333V373.828267c0-7.509333 6.144-13.653333 13.653334-13.653334h63.214933c29.0816 0 48.128 1.160533 56.9344 3.549867a62.122667 62.122667 0 0 1 34.133333 23.210667c9.147733 11.946667 13.7216 27.306667 13.7216 46.216533 0 14.5408-2.594133 26.760533-7.918933 36.727467a65.194667 65.194667 0 0 1-20.0704 23.3472c-8.192 5.666133-16.452267 9.4208-24.849067 11.264-11.4688 2.2528-27.989333 3.413333-49.698133 3.413333h-17.544533a13.653333 13.653333 0 0 0-13.653334 13.653333v62.122667a13.653333 13.653333 0 0 1-13.653333 13.653333h-20.616533z m47.9232-197.085866a13.585067 13.585067 0 0 0-13.653334 13.653333v40.004267a13.653333 13.653333 0 0 0 13.653334 13.653333h12.561066c18.8416 0 31.470933-1.2288 37.819734-3.6864a31.3344 31.3344 0 0 0 20.411733-30.1056 30.583467 30.583467 0 0 0-7.645867-21.367467 33.1776 33.1776 0 0 0-19.182933-10.513066 229.853867 229.853867 0 0 0-34.474667-1.6384h-9.557333zM643.754667 597.333333a13.653333 13.653333 0 0 1-13.653334-13.653333V373.828267c0-7.509333 6.144-13.653333 13.653334-13.653334h63.214933c29.149867 0 48.128 1.160533 56.9344 3.549867a62.122667 62.122667 0 0 1 34.133333 23.210667c9.216 11.946667 13.789867 27.306667 13.789867 46.216533 0 14.5408-2.6624 26.760533-7.918933 36.727467a65.194667 65.194667 0 0 1-20.138667 23.3472c-8.192 5.666133-16.384 9.4208-24.849067 11.264-11.4688 2.2528-27.989333 3.413333-49.629866 3.413333h-17.6128a13.653333 13.653333 0 0 0-13.653334 13.653333v62.122667a13.653333 13.653333 0 0 1-13.653333 13.653333H643.754667z m47.9232-197.085866a13.653333 13.653333 0 0 0-13.653334 13.653333v40.004267a13.653333 13.653333 0 0 0 13.653334 13.653333h12.561066c18.8416 0 31.470933-1.2288 37.819734-3.6864a31.402667 31.402667 0 0 0 20.411733-30.1056 30.72 30.72 0 0 0-7.5776-21.367467 33.1776 33.1776 0 0 0-19.2512-10.513066 229.853867 229.853867 0 0 0-34.474667-1.6384h-9.489066z" fill="#FFFFFF" p-id="1566"></path>
</svg>
