<svg t="1579794940185" class="icon" viewBox="0 0 1024 1024" version="1.1"
  xmlns="http://www.w3.org/2000/svg" p-id="19770" width="200" height="200">
  <path d="M230.62066 298.196l-142.54 213.812 142.54 213.804c12.25 18.384 7.288 43.22-11.094 55.478-18.336 12.218-43.18 7.336-55.47-11.094l-157.336-236a39.998 39.998 0 0 1 0-44.384l157.336-236C176.30666 235.44 201.14266 230.468 219.52666 242.72c18.382 12.26 23.344 37.094 11.094 55.478z m786.664 191.616l-157.336-236C847.69866 235.44 822.86266 230.468 804.47866 242.72c-18.382 12.26-23.344 37.094-11.094 55.478l142.548 213.812-142.548 213.804c-12.25 18.384-7.288 43.22 11.094 55.478 18.306 12.202 43.164 7.366 55.47-11.094l157.336-236a39.998 39.998 0 0 0 0-44.384zM691.52266 242.72c-18.38-12.25-43.218-7.28-55.476 11.094l-314.664 472c-12.25 18.384-7.288 43.22 11.094 55.478 18.306 12.202 43.164 7.366 55.47-11.094l314.672-472c12.25-18.384 7.288-43.22-11.094-55.478z m0 0" p-id="19771"></path>
</svg>
