<?xml version="1.0" encoding="utf-8"?>
<svg xmlns="http://www.w3.org/2000/svg" style="margin: auto; display: block; shape-rendering: auto; background: none;" width="280" height="250" preserveAspectRatio="xMidYMid">
<style type="text/css">
  text {
    text-anchor: middle; font-size: 80px; opacity: 0;
  }
</style>
<g style="transform-origin:140px 125px;transform:scale(1)">
<g transform="translate(140,125)">
  <g transform="translate(0,0)"><g class="path" style="transform: scale(0.91); transform-origin: -83.24px -1.63367px; animation: 1s linear -0.55s infinite normal forwards running breath-dfe8b016-47de-4333-84f1-0474cc218aeb;"><path d="M51.64-25.86L51.64-25.86L51.64-25.86Q51.64-21.29 50.53-16.33L50.53-16.33L50.53-16.33Q49.41-11.37 47.42-6.60L47.42-6.60L47.42-6.60Q45.43-1.84 42.66 2.36L42.66 2.36L42.66 2.36Q39.88 6.56 36.56 9.61L36.56 9.61L31.60 6.91L31.60 6.91Q32.66 4.96 33.59 2.54L33.59 2.54L33.59 2.54Q34.53 0.12 35.29-2.60L35.29-2.60L35.29-2.60Q36.05-5.31 36.66-8.20L36.66-8.20L36.66-8.20Q37.27-11.09 37.68-13.93L37.68-13.93L37.68-13.93Q38.09-16.76 38.30-19.43L38.30-19.43L38.30-19.43Q38.52-22.11 38.52-24.41L38.52-24.41L38.52-24.41Q38.52-25.94 38.40-27.68L38.40-27.68L38.40-27.68Q38.28-29.41 37.91-31.15L37.91-31.15L37.91-31.15Q37.54-32.89 36.91-34.49L36.91-34.49L36.91-34.49Q36.29-36.09 35.25-37.30L35.25-37.30L35.25-37.30Q34.22-38.52 32.75-39.26L32.75-39.26L32.75-39.26Q31.29-40 29.30-40L29.30-40L29.30-40Q27.34-40 25.82-39.12L25.82-39.12L25.82-39.12Q24.30-38.24 23.13-36.82L23.13-36.82L23.13-36.82Q21.95-35.39 21.11-33.55L21.11-33.55L21.11-33.55Q20.27-31.72 19.75-29.79L19.75-29.79L19.75-29.79Q19.22-27.85 18.98-25.98L18.98-25.98L18.98-25.98Q18.75-24.10 18.75-22.62L18.75-22.62L18.75 0L5.51 0L5.51-61.72L18.71-61.72L18.71-38.48L18.71-38.48Q21.25-42.19 24.94-44.20L24.94-44.20L24.94-44.20Q28.63-46.21 33.13-46.21L33.13-46.21L33.13-46.21Q37.81-46.21 41.29-44.69L41.29-44.69L41.29-44.69Q44.77-43.16 47.07-40.45L47.07-40.45L47.07-40.45Q49.38-37.73 50.51-34.00L50.51-34.00L50.51-34.00Q51.64-30.27 51.64-25.86" fill="#0c0a08" stroke="none" stroke-width="none" transform="translate(-111.81500244140625,24.421333719889315)" style="fill: rgb(12, 10, 8);"></path></g><g class="path" style="transform: scale(0.91); transform-origin: -28.98px 1.76633px; animation: 1s linear -0.44s infinite normal forwards running breath-dfe8b016-47de-4333-84f1-0474cc218aeb;"><path d="M108.01-22.66L108.01-22.66L108.01-22.66Q108.01-19.14 107.07-16.05L107.07-16.05L107.07-16.05Q106.13-12.97 104.47-10.35L104.47-10.35L104.47-10.35Q102.81-7.73 100.47-5.64L100.47-5.64L100.47-5.64Q98.13-3.55 95.33-2.11L95.33-2.11L95.33-2.11Q92.54-0.66 89.36 0.12L89.36 0.12L89.36 0.12Q86.17 0.90 82.81 0.90L82.81 0.90L82.81 0.90Q79.45 0.90 76.29 0.12L76.29 0.12L76.29 0.12Q73.13-0.66 70.33-2.11L70.33-2.11L70.33-2.11Q67.54-3.55 65.20-5.64L65.20-5.64L65.20-5.64Q62.85-7.73 61.19-10.35L61.19-10.35L61.19-10.35Q59.53-12.97 58.59-16.07L58.59-16.07L58.59-16.07Q57.66-19.18 57.66-22.66L57.66-22.66L57.66-22.66Q57.66-26.13 58.59-29.24L58.59-29.24L58.59-29.24Q59.53-32.34 61.19-34.96L61.19-34.96L61.19-34.96Q62.85-37.58 65.20-39.67L65.20-39.67L65.20-39.67Q67.54-41.76 70.33-43.20L70.33-43.20L70.33-43.20Q73.13-44.65 76.29-45.43L76.29-45.43L76.29-45.43Q79.45-46.21 82.81-46.21L82.81-46.21L82.81-46.21Q86.17-46.21 89.36-45.43L89.36-45.43L89.36-45.43Q92.54-44.65 95.33-43.20L95.33-43.20L95.33-43.20Q98.13-41.76 100.47-39.67L100.47-39.67L100.47-39.67Q102.81-37.58 104.47-34.96L104.47-34.96L104.47-34.96Q106.13-32.34 107.07-29.24L107.07-29.24L107.07-29.24Q108.01-26.13 108.01-22.66zM94.57-22.66L94.57-22.66L94.57-22.66Q94.57-24.53 94.36-26.62L94.36-26.62L94.36-26.62Q94.14-28.71 93.63-30.72L93.63-30.72L93.63-30.72Q93.13-32.73 92.25-34.59L92.25-34.59L92.25-34.59Q91.37-36.45 90.08-37.83L90.08-37.83L90.08-37.83Q88.79-39.22 86.99-40.06L86.99-40.06L86.99-40.06Q85.20-40.90 82.81-40.90L82.81-40.90L82.81-40.90Q80.55-40.90 78.79-40.04L78.79-40.04L78.79-40.04Q77.03-39.18 75.72-37.75L75.72-37.75L75.72-37.75Q74.41-36.33 73.54-34.45L73.54-34.45L73.54-34.45Q72.66-32.58 72.11-30.57L72.11-30.57L72.11-30.57Q71.56-28.55 71.33-26.50L71.33-26.50L71.33-26.50Q71.09-24.45 71.09-22.66L71.09-22.66L71.09-22.66Q71.09-20.86 71.33-18.81L71.33-18.81L71.33-18.81Q71.56-16.76 72.11-14.73L72.11-14.73L72.11-14.73Q72.66-12.70 73.54-10.84L73.54-10.84L73.54-10.84Q74.41-8.98 75.72-7.56L75.72-7.56L75.72-7.56Q77.03-6.13 78.79-5.27L78.79-5.27L78.79-5.27Q80.55-4.41 82.81-4.41L82.81-4.41L82.81-4.41Q85.16-4.41 86.95-5.25L86.95-5.25L86.95-5.25Q88.75-6.09 90.06-7.50L90.06-7.50L90.06-7.50Q91.37-8.91 92.23-10.74L92.23-10.74L92.23-10.74Q93.09-12.58 93.61-14.61L93.61-14.61L93.61-14.61Q94.14-16.64 94.36-18.71L94.36-18.71L94.36-18.71Q94.57-20.78 94.57-22.66" fill="#0c0a08" stroke="none" stroke-width="none" transform="translate(-111.81500244140625,24.421333719889315)" style="fill: rgb(182, 182, 182);"></path></g><g class="path" style="transform: scale(0.91); transform-origin: 26.99px 1.76633px; animation: 1s linear -0.33s infinite normal forwards running breath-dfe8b016-47de-4333-84f1-0474cc218aeb;"><path d="M163.98-22.66L163.98-22.66L163.98-22.66Q163.98-19.14 163.05-16.05L163.05-16.05L163.05-16.05Q162.11-12.97 160.45-10.35L160.45-10.35L160.45-10.35Q158.79-7.73 156.45-5.64L156.45-5.64L156.45-5.64Q154.10-3.55 151.31-2.11L151.31-2.11L151.31-2.11Q148.52-0.66 145.33 0.12L145.33 0.12L145.33 0.12Q142.15 0.90 138.79 0.90L138.79 0.90L138.79 0.90Q135.43 0.90 132.27 0.12L132.27 0.12L132.27 0.12Q129.10-0.66 126.31-2.11L126.31-2.11L126.31-2.11Q123.52-3.55 121.17-5.64L121.17-5.64L121.17-5.64Q118.83-7.73 117.17-10.35L117.17-10.35L117.17-10.35Q115.51-12.97 114.57-16.07L114.57-16.07L114.57-16.07Q113.63-19.18 113.63-22.66L113.63-22.66L113.63-22.66Q113.63-26.13 114.57-29.24L114.57-29.24L114.57-29.24Q115.51-32.34 117.17-34.96L117.17-34.96L117.17-34.96Q118.83-37.58 121.17-39.67L121.17-39.67L121.17-39.67Q123.52-41.76 126.31-43.20L126.31-43.20L126.31-43.20Q129.10-44.65 132.27-45.43L132.27-45.43L132.27-45.43Q135.43-46.21 138.79-46.21L138.79-46.21L138.79-46.21Q142.15-46.21 145.33-45.43L145.33-45.43L145.33-45.43Q148.52-44.65 151.31-43.20L151.31-43.20L151.31-43.20Q154.10-41.76 156.45-39.67L156.45-39.67L156.45-39.67Q158.79-37.58 160.45-34.96L160.45-34.96L160.45-34.96Q162.11-32.34 163.05-29.24L163.05-29.24L163.05-29.24Q163.98-26.13 163.98-22.66zM150.55-22.66L150.55-22.66L150.55-22.66Q150.55-24.53 150.33-26.62L150.33-26.62L150.33-26.62Q150.12-28.71 149.61-30.72L149.61-30.72L149.61-30.72Q149.10-32.73 148.22-34.59L148.22-34.59L148.22-34.59Q147.34-36.45 146.05-37.83L146.05-37.83L146.05-37.83Q144.77-39.22 142.97-40.06L142.97-40.06L142.97-40.06Q141.17-40.90 138.79-40.90L138.79-40.90L138.79-40.90Q136.52-40.90 134.77-40.04L134.77-40.04L134.77-40.04Q133.01-39.18 131.70-37.75L131.70-37.75L131.70-37.75Q130.39-36.33 129.51-34.45L129.51-34.45L129.51-34.45Q128.63-32.58 128.09-30.57L128.09-30.57L128.09-30.57Q127.54-28.55 127.30-26.50L127.30-26.50L127.30-26.50Q127.07-24.45 127.07-22.66L127.07-22.66L127.07-22.66Q127.07-20.86 127.30-18.81L127.30-18.81L127.30-18.81Q127.54-16.76 128.09-14.73L128.09-14.73L128.09-14.73Q128.63-12.70 129.51-10.84L129.51-10.84L129.51-10.84Q130.39-8.98 131.70-7.56L131.70-7.56L131.70-7.56Q133.01-6.13 134.77-5.27L134.77-5.27L134.77-5.27Q136.52-4.41 138.79-4.41L138.79-4.41L138.79-4.41Q141.13-4.41 142.93-5.25L142.93-5.25L142.93-5.25Q144.73-6.09 146.04-7.50L146.04-7.50L146.04-7.50Q147.34-8.91 148.20-10.74L148.20-10.74L148.20-10.74Q149.06-12.58 149.59-14.61L149.59-14.61L149.59-14.61Q150.12-16.64 150.33-18.71L150.33-18.71L150.33-18.71Q150.55-20.78 150.55-22.66" fill="#0c0a08" stroke="none" stroke-width="none" transform="translate(-111.81500244140625,24.421333719889315)" style="fill: rgb(244, 245, 246);"></path></g><g class="path" style="transform: scale(0.91); transform-origin: 65.375px 18.5813px; animation: 1s linear -0.22s infinite normal forwards running breath-dfe8b016-47de-4333-84f1-0474cc218aeb;"><path d="M184.30-5.86L184.30-5.86L184.30-5.86Q184.30-4.38 183.75-3.07L183.75-3.07L183.75-3.07Q183.20-1.76 182.23-0.80L182.23-0.80L182.23-0.80Q181.25 0.16 179.96 0.72L179.96 0.72L179.96 0.72Q178.67 1.29 177.19 1.29L177.19 1.29L177.19 1.29Q175.70 1.29 174.41 0.72L174.41 0.72L174.41 0.72Q173.13 0.16 172.15-0.80L172.15-0.80L172.15-0.80Q171.17-1.76 170.63-3.07L170.63-3.07L170.63-3.07Q170.08-4.38 170.08-5.86L170.08-5.86L170.08-5.86Q170.08-7.30 170.63-8.61L170.63-8.61L170.63-8.61Q171.17-9.92 172.15-10.88L172.15-10.88L172.15-10.88Q173.13-11.84 174.41-12.40L174.41-12.40L174.41-12.40Q175.70-12.97 177.19-12.97L177.19-12.97L177.19-12.97Q178.67-12.97 179.96-12.40L179.96-12.40L179.96-12.40Q181.25-11.84 182.23-10.88L182.23-10.88L182.23-10.88Q183.20-9.92 183.75-8.61L183.75-8.61L183.75-8.61Q184.30-7.30 184.30-5.86" fill="#0c0a08" stroke="none" stroke-width="none" transform="translate(-111.81500244140625,24.421333719889315)" style="fill: rgb(12, 10, 8);"></path></g><g class="path" style="transform: scale(0.91); transform-origin: 87.795px 18.5813px; animation: 1s linear -0.11s infinite normal forwards running breath-dfe8b016-47de-4333-84f1-0474cc218aeb;"><path d="M206.72-5.86L206.72-5.86L206.72-5.86Q206.72-4.38 206.17-3.07L206.17-3.07L206.17-3.07Q205.63-1.76 204.65-0.80L204.65-0.80L204.65-0.80Q203.67 0.16 202.38 0.72L202.38 0.72L202.38 0.72Q201.09 1.29 199.61 1.29L199.61 1.29L199.61 1.29Q198.13 1.29 196.84 0.72L196.84 0.72L196.84 0.72Q195.55 0.16 194.57-0.80L194.57-0.80L194.57-0.80Q193.59-1.76 193.05-3.07L193.05-3.07L193.05-3.07Q192.50-4.38 192.50-5.86L192.50-5.86L192.50-5.86Q192.50-7.30 193.05-8.61L193.05-8.61L193.05-8.61Q193.59-9.92 194.57-10.88L194.57-10.88L194.57-10.88Q195.55-11.84 196.84-12.40L196.84-12.40L196.84-12.40Q198.13-12.97 199.61-12.97L199.61-12.97L199.61-12.97Q201.09-12.97 202.38-12.40L202.38-12.40L202.38-12.40Q203.67-11.84 204.65-10.88L204.65-10.88L204.65-10.88Q205.63-9.92 206.17-8.61L206.17-8.61L206.17-8.61Q206.72-7.30 206.72-5.86" fill="#0c0a08" stroke="none" stroke-width="none" transform="translate(-111.81500244140625,24.421333719889315)" style="fill: rgb(182, 182, 182);"></path></g><g class="path" style="transform: scale(0.91); transform-origin: 110.215px 18.5813px; animation: 1s linear 0s infinite normal forwards running breath-dfe8b016-47de-4333-84f1-0474cc218aeb;"><path d="M229.14-5.86L229.14-5.86L229.14-5.86Q229.14-4.38 228.59-3.07L228.59-3.07L228.59-3.07Q228.05-1.76 227.07-0.80L227.07-0.80L227.07-0.80Q226.09 0.16 224.80 0.72L224.80 0.72L224.80 0.72Q223.52 1.29 222.03 1.29L222.03 1.29L222.03 1.29Q220.55 1.29 219.26 0.72L219.26 0.72L219.26 0.72Q217.97 0.16 216.99-0.80L216.99-0.80L216.99-0.80Q216.02-1.76 215.47-3.07L215.47-3.07L215.47-3.07Q214.92-4.38 214.92-5.86L214.92-5.86L214.92-5.86Q214.92-7.30 215.47-8.61L215.47-8.61L215.47-8.61Q216.02-9.92 216.99-10.88L216.99-10.88L216.99-10.88Q217.97-11.84 219.26-12.40L219.26-12.40L219.26-12.40Q220.55-12.97 222.03-12.97L222.03-12.97L222.03-12.97Q223.52-12.97 224.80-12.40L224.80-12.40L224.80-12.40Q226.09-11.84 227.07-10.88L227.07-10.88L227.07-10.88Q228.05-9.92 228.59-8.61L228.59-8.61L228.59-8.61Q229.14-7.30 229.14-5.86" fill="#0c0a08" stroke="none" stroke-width="none" transform="translate(-111.81500244140625,24.421333719889315)" style="fill: rgb(244, 245, 246);"></path></g></g>
</g>
</g>
<style id="breath-dfe8b016-47de-4333-84f1-0474cc218aeb" data-anikit="">@keyframes breath-dfe8b016-47de-4333-84f1-0474cc218aeb
{
  0% {
    animation-timing-function: cubic-bezier(0.9647,0.2413,-0.0705,0.7911);
    transform: scale(0.9099999999999999);
  }
  51% {
    animation-timing-function: cubic-bezier(0.9226,0.2631,-0.0308,0.7628);
    transform: scale(1.02994);
  }
  100% {
    transform: scale(0.9099999999999999);
  }
}</style></svg>
