<svg t="1579794985383" class="icon" viewBox="0 0 1536 1024" version="1.1"
  xmlns="http://www.w3.org/2000/svg" p-id="21182" width="200" height="200">
  <path d="M1212.768 444.64h121.152c65.152 0 121.248-61.696 121.248-141.472s-56.096-141.472-121.248-141.472h-201.216V80.864h201.216c111.616 0 202.112 99.52 202.112 222.304s-90.496 222.304-202.112 222.304h-121.152v42.848l-101.344-81.632 101.344-81.856v39.776zM586.112 0h363.776a141.44 141.44 0 1 1 0 282.944H586.112a141.44 141.44 0 1 1 0-282.944z m0 80.832a60.64 60.64 0 0 0 0 121.28h363.776a60.64 60.64 0 0 0 0-121.28H586.112z m-262.88 768v-39.776l101.344 81.856-101.344 81.632v-42.848H202.08c-111.616 0-202.112-99.52-202.112-222.304s90.496-222.304 202.112-222.304h202.08v80.832H202.08c-65.152 0-121.248 61.696-121.248 141.472s56.096 141.472 121.248 141.472h121.152z m262.88-485.056h363.776a141.44 141.44 0 1 1 0 282.944H586.112a141.44 141.44 0 1 1 0-282.944z m0 80.864a60.64 60.64 0 0 0 0 121.28h363.776a60.64 60.64 0 0 0 0-121.28H586.112z m0 282.944h363.776a141.44 141.44 0 1 1 0 282.944H586.112a141.44 141.44 0 1 1 0-282.944z m0 80.832a60.64 60.64 0 0 0 0 121.28h363.776a60.64 60.64 0 0 0 0-121.28H586.112z" p-id="21183"></path>
</svg>
