<?xml version="1.0" standalone="no"?><!DOCTYPE svg PUBLIC "-//W3C//DTD SVG 1.1//EN" "http://www.w3.org/Graphics/SVG/1.1/DTD/svg11.dtd">
<svg t="1579792773637" class="icon" viewBox="0 0 1024 1024" version="1.1"
  xmlns="http://www.w3.org/2000/svg" p-id="14485"
  xmlns:xlink="http://www.w3.org/1999/xlink" fill="#1A1A1A" width="200" height="200">
  <path d="M603.4 735.2l161.9 161.4 86 114.9 45.7 12.3 127-127.2-12.3-46.6-114.5-84.9-170.7-170.2-120.9 120.5c-0.2 6.7-0.9 13.3-2.2 19.8z m281.5 94.6c29.7 0 53.7 24 53.7 53.5 0 29.6-24.1 53.5-53.7 53.5s-53.7-24-53.7-53.5 24-53.5 53.7-53.5zM534 403.1l-94.9-94.5c12.2-23.8 19.5-47.7 19.5-69.7C458.6 117.4 342.2 0 220.4 1.5c-0.5 0-14.2 13.9-21.7 21.4 97.5 97.2 89.5 81.4 89.5 141.1 0 48.4-77.8 124.8-125.2 124.8-61.4 0-41.9 10.1-141.5-89.2C13.7 207.2 0 220.7 0 221.1c1.5 121.3 116.4 237.3 238.2 237.3 22 0 45.6-7 68.9-18.7l86.2 85.9c6.5-1.2 13.1-2 19.8-2.2L534 403.1z m388.1 206.8l64.9 63s93.5-258.3-17.5-369c-40.1-40-99.4-99.1-146.1-145.6-10.1-10.1-38.4-1-45.7-10.6-20.4-27-27.9-50.1-29.6-55.7-4.4-21.3-27.2-42.1-45.5-60.5l-6.8-6.8C680.6 9.4 672.6 0.2 663.3 0.2c-7.8 0-16.5 6.4-31.4 21.2L543.1 110c-32.6 32.5-24.9 35.7 3.2 63.7l6.9 6.8c20.5 20.4 44 46.2 67.9 46.2h0.9c18.4 3.4 56.3 14.2 73.8 46.1 19.2 42.3-7.9 71.5-18.8 87.7L438.7 597.9c-7.6-2.4-15.2-3.7-22.5-3.7-12.9 0-24.8 4.2-34.5 13.8l-7.6 7.6S177.9 811.2 127 861.9l-7.6 7.6C71 917.8 159.4 1022 223.9 1022c12.9 0 24.9-4.2 34.6-13.9l7.6-7.6c51-50.9 247.1-246.3 247.1-246.3l7.6-7.6c15.1-15.1 16.8-35.7 10.1-56.9l267-266.1c16.6-13.9 33.2-26.7 42.6-26.7 1.4 0 2.7 0.3 3.7 0.9 96.8 55.4 77.9 212.1 77.9 212.1z" p-id="14486"></path>
</svg>
